REM DIRINDEX 1\2,1\3,1\4,1\5
REM DIRNAME folder01,folder02,folder03,folder04,folder05
TITLE ""
FILE "1Q_t_1069-1078.mp3" MP3
  TRACK 01 AUDIO
    TITLE "3:cjc004_4111"
    INDEX 01 00:00:00
  TRACK 02 AUDIO
    TITLE "0:"
    INDEX 01 00:01:07
  TRACK 03 AUDIO
    TITLE "4:cjc004_4112"
    INDEX 01 00:01:34
  TRACK 04 AUDIO
    TITLE "0:"
    INDEX 01 00:02:55
  TRACK 05 AUDIO
    TITLE "5:cjc004_4113"
    INDEX 01 00:03:10
  TRACK 06 AUDIO
    TITLE "0:"
    INDEX 01 00:06:73
  TRACK 07 AUDIO
    TITLE "3:cjc004_4114"
    INDEX 01 00:07:52
  TRACK 08 AUDIO
    TITLE "0:"
    INDEX 01 00:09:08
  TRACK 09 AUDIO
    TITLE "4:cjc004_4115"
    INDEX 01 00:09:36
  TRACK 10 AUDIO
    TITLE "0:"
    INDEX 01 00:10:61
  TRACK 11 AUDIO
    TITLE "5:cjc004_4116"
    INDEX 01 00:11:09
  TRACK 12 AUDIO
    TITLE "0:"
    INDEX 01 00:15:56
  TRACK 13 AUDIO
    TITLE "3:cjc004_4117"
    INDEX 01 00:16:36
  TRACK 14 AUDIO
    TITLE "0:"
    INDEX 01 00:17:47
  TRACK 15 AUDIO
    TITLE "4:cjc004_4118"
    INDEX 01 00:18:03
  TRACK 16 AUDIO
    TITLE "0:"
    INDEX 01 00:19:07
  TRACK 17 AUDIO
    TITLE "5:cjc004_4119"
    INDEX 01 00:19:34
  TRACK 18 AUDIO
    TITLE "0:"
    INDEX 01 00:24:10
  TRACK 19 AUDIO
    TITLE "3:cjc004_4120"
    INDEX 01 00:24:67
  TRACK 20 AUDIO
    TITLE "0:"
    INDEX 01 00:26:11
  TRACK 21 AUDIO
    TITLE "4:cjc004_4121"
    INDEX 01 00:26:38
  TRACK 22 AUDIO
    TITLE "0:"
    INDEX 01 00:27:59
  TRACK 23 AUDIO
    TITLE "5:cjc004_4122"
    INDEX 01 00:28:08
  TRACK 24 AUDIO
    TITLE "0:"
    INDEX 01 00:32:74
  TRACK 25 AUDIO
    TITLE "3:cjc004_4123"
    INDEX 01 00:33:50
  TRACK 26 AUDIO
    TITLE "0:"
    INDEX 01 00:34:49
  TRACK 27 AUDIO
    TITLE "4:cjc004_4124"
    INDEX 01 00:35:04
  TRACK 28 AUDIO
    TITLE "0:"
    INDEX 01 00:36:40
  TRACK 29 AUDIO
    TITLE "5:cjc004_4125"
    INDEX 01 00:36:66
  TRACK 30 AUDIO
    TITLE "0:"
    INDEX 01 00:40:52
  TRACK 31 AUDIO
    TITLE "3:cjc004_4126"
    INDEX 01 00:41:36
  TRACK 32 AUDIO
    TITLE "0:"
    INDEX 01 00:42:43
  TRACK 33 AUDIO
    TITLE "4:cjc004_4127"
    INDEX 01 00:43:03
  TRACK 34 AUDIO
    TITLE "0:"
    INDEX 01 00:44:05
  TRACK 35 AUDIO
    TITLE "5:cjc004_4128"
    INDEX 01 00:44:26
  TRACK 36 AUDIO
    TITLE "0:"
    INDEX 01 00:48:34
  TRACK 37 AUDIO
    TITLE "3:cjc004_4129"
    INDEX 01 00:49:20
  TRACK 38 AUDIO
    TITLE "0:"
    INDEX 01 00:50:25
  TRACK 39 AUDIO
    TITLE "4:cjc004_4130"
    INDEX 01 00:50:50
  TRACK 40 AUDIO
    TITLE "0:"
    INDEX 01 00:51:73
  TRACK 41 AUDIO
    TITLE "5:cjc004_4131"
    INDEX 01 00:52:28
  TRACK 42 AUDIO
    TITLE "0:"
    INDEX 01 00:56:47
  TRACK 43 AUDIO
    TITLE "3:cjc004_4132"
    INDEX 01 00:57:29
  TRACK 44 AUDIO
    TITLE "0:"
    INDEX 01 00:58:56
  TRACK 45 AUDIO
    TITLE "4:cjc004_4133"
    INDEX 01 00:59:12
  TRACK 46 AUDIO
    TITLE "0:"
    INDEX 01 01:00:43
  TRACK 47 AUDIO
    TITLE "5:cjc004_4134"
    INDEX 01 01:00:68
  TRACK 48 AUDIO
    TITLE "0:"
    INDEX 01 01:05:13
  TRACK 49 AUDIO
    TITLE "3:cjc004_4135"
    INDEX 01 01:05:68
  TRACK 50 AUDIO
    TITLE "0:"
    INDEX 01 01:06:73
  TRACK 51 AUDIO
    TITLE "4:cjc004_4136"
    INDEX 01 01:07:25
  TRACK 52 AUDIO
    TITLE "0:"
    INDEX 01 01:08:64
  TRACK 53 AUDIO
    TITLE "5:cjc004_4137"
    INDEX 01 01:09:10
  TRACK 54 AUDIO
    TITLE "0:"
    INDEX 01 01:14:17
  TRACK 55 AUDIO
    TITLE "3:cjc004_4138"
    INDEX 01 01:14:72
  TRACK 56 AUDIO
    TITLE "0:"
    INDEX 01 01:16:11
  TRACK 57 AUDIO
    TITLE "4:cjc004_4139"
    INDEX 01 01:16:40
  TRACK 58 AUDIO
    TITLE "0:"
    INDEX 01 01:17:55
  TRACK 59 AUDIO
    TITLE "5:cjc004_4140"
    INDEX 01 01:18:04
  TRACK 60 AUDIO
    TITLE "0:"
    INDEX 01 01:22:70
